<mxfile host="app.diagrams.net" agent="Mozilla/5.0 (Windows NT 10.0; Win64; x64) AppleWebKit/537.36 (KHTML, like Gecko) Chrome/131.0.0.0 Safari/537.36" version="24.9.3">
  <diagram name="第 1 页" id="_vfEqkuIPtF0k-6MjBZb">
    <mxGraphModel dx="1302" dy="711" grid="1" gridSize="10" guides="1" tooltips="1" connect="1" arrows="1" fold="1" page="1" pageScale="1" pageWidth="827" pageHeight="1169" math="0" shadow="0">
      <root>
        <mxCell id="0" />
        <mxCell id="1" parent="0" />
        <mxCell id="kix75phdpvYNx26Edn90-56" value="" style="rounded=0;whiteSpace=wrap;html=1;fontFamily=Helvetica;fontSize=11;fontColor=default;labelBackgroundColor=default;fillColor=none;dashed=1;" parent="1" vertex="1">
          <mxGeometry x="20" y="45" width="375" height="630" as="geometry" />
        </mxCell>
        <mxCell id="kix75phdpvYNx26Edn90-54" value="" style="rounded=0;whiteSpace=wrap;html=1;fontFamily=Helvetica;fontSize=11;fontColor=default;labelBackgroundColor=default;fillColor=none;dashed=1;" parent="1" vertex="1">
          <mxGeometry x="425" y="45" width="330" height="630" as="geometry" />
        </mxCell>
        <mxCell id="2-OeauLspyQQJwICCulJ-83" value="" style="ellipse;whiteSpace=wrap;html=1;aspect=fixed;fontFamily=Helvetica;fontSize=11;fontColor=default;labelBackgroundColor=default;" parent="1" vertex="1">
          <mxGeometry x="429" y="256" width="10" height="10" as="geometry" />
        </mxCell>
        <mxCell id="2-OeauLspyQQJwICCulJ-5" style="edgeStyle=orthogonalEdgeStyle;rounded=0;orthogonalLoop=1;jettySize=auto;html=1;exitX=1;exitY=0;exitDx=0;exitDy=0;exitPerimeter=0;endArrow=none;endFill=0;" parent="1" source="2-OeauLspyQQJwICCulJ-1" edge="1">
          <mxGeometry relative="1" as="geometry">
            <mxPoint x="596.2" y="91" as="targetPoint" />
          </mxGeometry>
        </mxCell>
        <mxCell id="2-OeauLspyQQJwICCulJ-1" value="" style="verticalLabelPosition=bottom;shadow=0;dashed=0;align=center;html=1;verticalAlign=top;shape=mxgraph.electrical.transistors.pmos;pointerEvents=1;" parent="1" vertex="1">
          <mxGeometry x="536" y="101" width="60" height="100" as="geometry" />
        </mxCell>
        <mxCell id="2-OeauLspyQQJwICCulJ-2" value="" style="endArrow=none;html=1;rounded=0;" parent="1" edge="1">
          <mxGeometry width="50" height="50" relative="1" as="geometry">
            <mxPoint x="565" y="61" as="sourcePoint" />
            <mxPoint x="625" y="61" as="targetPoint" />
          </mxGeometry>
        </mxCell>
        <mxCell id="2-OeauLspyQQJwICCulJ-3" value="" style="endArrow=none;html=1;rounded=0;" parent="1" edge="1">
          <mxGeometry width="50" height="50" relative="1" as="geometry">
            <mxPoint x="330" y="90" as="sourcePoint" />
            <mxPoint x="596" y="90" as="targetPoint" />
            <Array as="points">
              <mxPoint x="596" y="90" />
            </Array>
          </mxGeometry>
        </mxCell>
        <mxCell id="2-OeauLspyQQJwICCulJ-4" value="" style="endArrow=none;html=1;rounded=0;" parent="1" source="2-OeauLspyQQJwICCulJ-11" edge="1">
          <mxGeometry width="50" height="50" relative="1" as="geometry">
            <mxPoint x="596" y="91" as="sourcePoint" />
            <mxPoint x="596" y="61" as="targetPoint" />
          </mxGeometry>
        </mxCell>
        <mxCell id="2-OeauLspyQQJwICCulJ-6" value="" style="verticalLabelPosition=bottom;shadow=0;dashed=0;align=center;html=1;verticalAlign=top;shape=mxgraph.electrical.transistors.pmos;pointerEvents=1;" parent="1" vertex="1">
          <mxGeometry x="246" y="101" width="60" height="100" as="geometry" />
        </mxCell>
        <mxCell id="2-OeauLspyQQJwICCulJ-10" value="" style="endArrow=none;html=1;rounded=0;" parent="1" target="2-OeauLspyQQJwICCulJ-11" edge="1">
          <mxGeometry width="50" height="50" relative="1" as="geometry">
            <mxPoint x="596" y="91" as="sourcePoint" />
            <mxPoint x="596" y="61" as="targetPoint" />
          </mxGeometry>
        </mxCell>
        <mxCell id="2-OeauLspyQQJwICCulJ-11" value="" style="shape=waypoint;sketch=0;fillStyle=solid;size=6;pointerEvents=1;points=[];fillColor=none;resizable=0;rotatable=0;perimeter=centerPerimeter;snapToPoint=1;fontFamily=Helvetica;fontSize=11;fontColor=default;labelBackgroundColor=default;" parent="1" vertex="1">
          <mxGeometry x="586" y="81" width="20" height="20" as="geometry" />
        </mxCell>
        <mxCell id="2-OeauLspyQQJwICCulJ-16" style="edgeStyle=orthogonalEdgeStyle;shape=connector;rounded=0;orthogonalLoop=1;jettySize=auto;html=1;exitX=1;exitY=0;exitDx=0;exitDy=0;exitPerimeter=0;strokeColor=default;align=center;verticalAlign=middle;fontFamily=Helvetica;fontSize=11;fontColor=default;labelBackgroundColor=default;endArrow=none;endFill=0;entryX=1;entryY=1;entryDx=0;entryDy=0;entryPerimeter=0;" parent="1" source="2-OeauLspyQQJwICCulJ-13" target="2-OeauLspyQQJwICCulJ-1" edge="1">
          <mxGeometry relative="1" as="geometry">
            <mxPoint x="515.6666666666667" y="201.0000000000001" as="targetPoint" />
            <Array as="points">
              <mxPoint x="516" y="201" />
              <mxPoint x="596" y="201" />
            </Array>
          </mxGeometry>
        </mxCell>
        <mxCell id="2-OeauLspyQQJwICCulJ-13" value="" style="verticalLabelPosition=bottom;shadow=0;dashed=0;align=center;html=1;verticalAlign=top;shape=mxgraph.electrical.transistors.pmos;pointerEvents=1;" parent="1" vertex="1">
          <mxGeometry x="456" y="211" width="60" height="100" as="geometry" />
        </mxCell>
        <mxCell id="2-OeauLspyQQJwICCulJ-18" style="edgeStyle=orthogonalEdgeStyle;shape=connector;rounded=0;orthogonalLoop=1;jettySize=auto;html=1;exitX=1;exitY=0;exitDx=0;exitDy=0;exitPerimeter=0;strokeColor=default;align=center;verticalAlign=middle;fontFamily=Helvetica;fontSize=11;fontColor=default;labelBackgroundColor=default;endArrow=none;endFill=0;" parent="1" source="2-OeauLspyQQJwICCulJ-17" edge="1">
          <mxGeometry relative="1" as="geometry">
            <mxPoint x="596" y="201" as="targetPoint" />
            <Array as="points">
              <mxPoint x="666" y="201" />
            </Array>
          </mxGeometry>
        </mxCell>
        <mxCell id="2-OeauLspyQQJwICCulJ-88" style="edgeStyle=orthogonalEdgeStyle;shape=connector;rounded=0;orthogonalLoop=1;jettySize=auto;html=1;exitX=0;exitY=0.5;exitDx=0;exitDy=0;exitPerimeter=0;entryX=0;entryY=0.5;entryDx=0;entryDy=0;strokeColor=default;align=center;verticalAlign=middle;fontFamily=Helvetica;fontSize=11;fontColor=default;labelBackgroundColor=default;endArrow=none;endFill=0;" parent="1" edge="1">
          <mxGeometry relative="1" as="geometry">
            <mxPoint x="690.9999999999998" y="258.1399999999999" as="sourcePoint" />
            <mxPoint x="730.999999999982" y="258.14" as="targetPoint" />
            <Array as="points">
              <mxPoint x="712.01" y="258" />
            </Array>
          </mxGeometry>
        </mxCell>
        <mxCell id="2-OeauLspyQQJwICCulJ-17" value="" style="verticalLabelPosition=bottom;shadow=0;dashed=0;align=center;html=1;verticalAlign=top;shape=mxgraph.electrical.transistors.pmos;pointerEvents=1;flipV=0;flipH=1;" parent="1" vertex="1">
          <mxGeometry x="666" y="208.14" width="60" height="100" as="geometry" />
        </mxCell>
        <mxCell id="2-OeauLspyQQJwICCulJ-19" value="" style="verticalLabelPosition=bottom;shadow=0;dashed=0;align=center;html=1;verticalAlign=top;shape=mxgraph.electrical.transistors.pmos;pointerEvents=1;flipV=0;flipH=1;" parent="1" vertex="1">
          <mxGeometry x="516" y="310" width="60" height="100" as="geometry" />
        </mxCell>
        <mxCell id="2-OeauLspyQQJwICCulJ-30" value="" style="edgeStyle=orthogonalEdgeStyle;shape=connector;rounded=0;orthogonalLoop=1;jettySize=auto;html=1;strokeColor=default;align=center;verticalAlign=middle;fontFamily=Helvetica;fontSize=11;fontColor=default;labelBackgroundColor=default;endArrow=none;endFill=0;" parent="1" source="2-OeauLspyQQJwICCulJ-20" target="2-OeauLspyQQJwICCulJ-19" edge="1">
          <mxGeometry relative="1" as="geometry" />
        </mxCell>
        <mxCell id="2-OeauLspyQQJwICCulJ-20" value="" style="verticalLabelPosition=bottom;shadow=0;dashed=0;align=center;html=1;verticalAlign=top;shape=mxgraph.electrical.transistors.pmos;pointerEvents=1;" parent="1" vertex="1">
          <mxGeometry x="606" y="310" width="60" height="100" as="geometry" />
        </mxCell>
        <mxCell id="2-OeauLspyQQJwICCulJ-29" value="" style="edgeStyle=orthogonalEdgeStyle;shape=connector;rounded=0;orthogonalLoop=1;jettySize=auto;html=1;strokeColor=default;align=center;verticalAlign=middle;fontFamily=Helvetica;fontSize=11;fontColor=default;labelBackgroundColor=default;endArrow=none;endFill=0;" parent="1" source="2-OeauLspyQQJwICCulJ-21" target="2-OeauLspyQQJwICCulJ-22" edge="1">
          <mxGeometry relative="1" as="geometry" />
        </mxCell>
        <mxCell id="2-OeauLspyQQJwICCulJ-21" value="" style="verticalLabelPosition=bottom;shadow=0;dashed=0;align=center;html=1;verticalAlign=top;shape=mxgraph.electrical.transistors.nmos;pointerEvents=1;fontFamily=Helvetica;fontSize=11;fontColor=default;labelBackgroundColor=default;" parent="1" vertex="1">
          <mxGeometry x="606" y="450" width="60" height="100" as="geometry" />
        </mxCell>
        <mxCell id="2-OeauLspyQQJwICCulJ-22" value="" style="verticalLabelPosition=bottom;shadow=0;dashed=0;align=center;html=1;verticalAlign=top;shape=mxgraph.electrical.transistors.nmos;pointerEvents=1;fontFamily=Helvetica;fontSize=11;fontColor=default;labelBackgroundColor=default;flipH=1;" parent="1" vertex="1">
          <mxGeometry x="516" y="450" width="60" height="100" as="geometry" />
        </mxCell>
        <mxCell id="2-OeauLspyQQJwICCulJ-28" value="" style="edgeStyle=orthogonalEdgeStyle;shape=connector;rounded=0;orthogonalLoop=1;jettySize=auto;html=1;strokeColor=default;align=center;verticalAlign=middle;fontFamily=Helvetica;fontSize=11;fontColor=default;labelBackgroundColor=default;endArrow=none;endFill=0;" parent="1" source="2-OeauLspyQQJwICCulJ-23" target="2-OeauLspyQQJwICCulJ-24" edge="1">
          <mxGeometry relative="1" as="geometry" />
        </mxCell>
        <mxCell id="2-OeauLspyQQJwICCulJ-23" value="" style="verticalLabelPosition=bottom;shadow=0;dashed=0;align=center;html=1;verticalAlign=top;shape=mxgraph.electrical.transistors.nmos;pointerEvents=1;fontFamily=Helvetica;fontSize=11;fontColor=default;labelBackgroundColor=default;flipH=1;" parent="1" vertex="1">
          <mxGeometry x="516" y="564" width="60" height="100" as="geometry" />
        </mxCell>
        <mxCell id="2-OeauLspyQQJwICCulJ-24" value="" style="verticalLabelPosition=bottom;shadow=0;dashed=0;align=center;html=1;verticalAlign=top;shape=mxgraph.electrical.transistors.nmos;pointerEvents=1;fontFamily=Helvetica;fontSize=11;fontColor=default;labelBackgroundColor=default;flipH=0;" parent="1" vertex="1">
          <mxGeometry x="606" y="564" width="60" height="100" as="geometry" />
        </mxCell>
        <mxCell id="2-OeauLspyQQJwICCulJ-25" style="edgeStyle=orthogonalEdgeStyle;shape=connector;rounded=0;orthogonalLoop=1;jettySize=auto;html=1;exitX=1;exitY=1;exitDx=0;exitDy=0;exitPerimeter=0;entryX=1;entryY=0;entryDx=0;entryDy=0;entryPerimeter=0;strokeColor=default;align=center;verticalAlign=middle;fontFamily=Helvetica;fontSize=11;fontColor=default;labelBackgroundColor=default;endArrow=none;endFill=0;" parent="1" source="2-OeauLspyQQJwICCulJ-13" target="2-OeauLspyQQJwICCulJ-19" edge="1">
          <mxGeometry relative="1" as="geometry" />
        </mxCell>
        <mxCell id="2-OeauLspyQQJwICCulJ-26" style="edgeStyle=orthogonalEdgeStyle;shape=connector;rounded=0;orthogonalLoop=1;jettySize=auto;html=1;exitDx=0;exitDy=0;exitPerimeter=0;entryX=1;entryY=0;entryDx=0;entryDy=0;entryPerimeter=0;strokeColor=default;align=center;verticalAlign=middle;fontFamily=Helvetica;fontSize=11;fontColor=default;labelBackgroundColor=default;endArrow=none;endFill=0;" parent="1" target="2-OeauLspyQQJwICCulJ-22" edge="1">
          <mxGeometry relative="1" as="geometry">
            <mxPoint x="516" y="425" as="sourcePoint" />
          </mxGeometry>
        </mxCell>
        <mxCell id="2-OeauLspyQQJwICCulJ-27" style="edgeStyle=orthogonalEdgeStyle;shape=connector;rounded=0;orthogonalLoop=1;jettySize=auto;html=1;exitX=1;exitY=1;exitDx=0;exitDy=0;exitPerimeter=0;entryX=1;entryY=0;entryDx=0;entryDy=0;entryPerimeter=0;strokeColor=default;align=center;verticalAlign=middle;fontFamily=Helvetica;fontSize=11;fontColor=default;labelBackgroundColor=default;endArrow=none;endFill=0;" parent="1" source="2-OeauLspyQQJwICCulJ-22" target="2-OeauLspyQQJwICCulJ-23" edge="1">
          <mxGeometry relative="1" as="geometry" />
        </mxCell>
        <mxCell id="2-OeauLspyQQJwICCulJ-32" style="edgeStyle=orthogonalEdgeStyle;shape=connector;rounded=0;orthogonalLoop=1;jettySize=auto;html=1;exitX=1;exitY=0;exitDx=0;exitDy=0;exitPerimeter=0;entryX=1;entryY=1;entryDx=0;entryDy=0;entryPerimeter=0;strokeColor=default;align=center;verticalAlign=middle;fontFamily=Helvetica;fontSize=11;fontColor=default;labelBackgroundColor=default;endArrow=none;endFill=0;" parent="1" source="2-OeauLspyQQJwICCulJ-20" target="2-OeauLspyQQJwICCulJ-17" edge="1">
          <mxGeometry relative="1" as="geometry" />
        </mxCell>
        <mxCell id="2-OeauLspyQQJwICCulJ-33" style="edgeStyle=orthogonalEdgeStyle;shape=connector;rounded=0;orthogonalLoop=1;jettySize=auto;html=1;exitDx=0;exitDy=0;exitPerimeter=0;entryX=1;entryY=0;entryDx=0;entryDy=0;entryPerimeter=0;strokeColor=default;align=center;verticalAlign=middle;fontFamily=Helvetica;fontSize=11;fontColor=default;labelBackgroundColor=default;endArrow=none;endFill=0;" parent="1" target="2-OeauLspyQQJwICCulJ-21" edge="1">
          <mxGeometry relative="1" as="geometry">
            <mxPoint x="666" y="425" as="sourcePoint" />
          </mxGeometry>
        </mxCell>
        <mxCell id="2-OeauLspyQQJwICCulJ-34" style="edgeStyle=orthogonalEdgeStyle;shape=connector;rounded=0;orthogonalLoop=1;jettySize=auto;html=1;exitX=1;exitY=1;exitDx=0;exitDy=0;exitPerimeter=0;entryX=1;entryY=0;entryDx=0;entryDy=0;entryPerimeter=0;strokeColor=default;align=center;verticalAlign=middle;fontFamily=Helvetica;fontSize=11;fontColor=default;labelBackgroundColor=default;endArrow=none;endFill=0;" parent="1" source="2-OeauLspyQQJwICCulJ-21" target="2-OeauLspyQQJwICCulJ-24" edge="1">
          <mxGeometry relative="1" as="geometry" />
        </mxCell>
        <mxCell id="2-OeauLspyQQJwICCulJ-37" value="" style="endArrow=none;html=1;rounded=0;exitX=1;exitY=1;exitDx=0;exitDy=0;exitPerimeter=0;" parent="1" source="kix75phdpvYNx26Edn90-7" target="2-OeauLspyQQJwICCulJ-36" edge="1">
          <mxGeometry width="50" height="50" relative="1" as="geometry">
            <mxPoint x="316" y="661.1428571428571" as="sourcePoint" />
            <mxPoint x="896" y="661" as="targetPoint" />
            <Array as="points" />
          </mxGeometry>
        </mxCell>
        <mxCell id="2-OeauLspyQQJwICCulJ-36" value="" style="shape=waypoint;sketch=0;fillStyle=solid;size=6;pointerEvents=1;points=[];fillColor=none;resizable=0;rotatable=0;perimeter=centerPerimeter;snapToPoint=1;fontFamily=Helvetica;fontSize=11;fontColor=default;labelBackgroundColor=default;" parent="1" vertex="1">
          <mxGeometry x="506" y="649" width="20" height="20" as="geometry" />
        </mxCell>
        <mxCell id="2-OeauLspyQQJwICCulJ-39" value="" style="endArrow=none;html=1;rounded=0;" parent="1" source="2-OeauLspyQQJwICCulJ-36" edge="1">
          <mxGeometry width="50" height="50" relative="1" as="geometry">
            <mxPoint x="516" y="659" as="sourcePoint" />
            <mxPoint x="666" y="659" as="targetPoint" />
            <Array as="points" />
          </mxGeometry>
        </mxCell>
        <mxCell id="2-OeauLspyQQJwICCulJ-45" style="edgeStyle=orthogonalEdgeStyle;shape=connector;rounded=0;orthogonalLoop=1;jettySize=auto;html=1;exitX=1;exitY=0;exitDx=0;exitDy=0;exitPerimeter=0;entryX=0.271;entryY=0.272;entryDx=0;entryDy=0;entryPerimeter=0;strokeColor=default;align=center;verticalAlign=middle;fontFamily=Helvetica;fontSize=11;fontColor=default;labelBackgroundColor=default;endArrow=none;endFill=0;" parent="1" source="2-OeauLspyQQJwICCulJ-6" edge="1">
          <mxGeometry relative="1" as="geometry">
            <mxPoint x="306" y="91" as="targetPoint" />
          </mxGeometry>
        </mxCell>
        <mxCell id="2-OeauLspyQQJwICCulJ-54" value="" style="edgeStyle=orthogonalEdgeStyle;shape=connector;rounded=0;orthogonalLoop=1;jettySize=auto;html=1;exitDx=0;exitDy=0;exitPerimeter=0;entryDx=0;entryDy=0;entryPerimeter=0;strokeColor=default;align=center;verticalAlign=middle;fontFamily=Helvetica;fontSize=11;fontColor=default;labelBackgroundColor=default;endArrow=none;endFill=0;" parent="1" source="8Mx9UTNkvWLHWeWhvfJE-20" edge="1">
          <mxGeometry relative="1" as="geometry">
            <mxPoint x="666" y="407" as="sourcePoint" />
            <mxPoint x="666" y="425" as="targetPoint" />
          </mxGeometry>
        </mxCell>
        <mxCell id="2-OeauLspyQQJwICCulJ-57" value="" style="edgeStyle=orthogonalEdgeStyle;shape=connector;rounded=0;orthogonalLoop=1;jettySize=auto;html=1;exitX=1;exitY=1;exitDx=0;exitDy=0;exitPerimeter=0;entryDx=0;entryDy=0;entryPerimeter=0;strokeColor=default;align=center;verticalAlign=middle;fontFamily=Helvetica;fontSize=11;fontColor=default;labelBackgroundColor=default;endArrow=none;endFill=0;" parent="1" source="2-OeauLspyQQJwICCulJ-19" edge="1">
          <mxGeometry relative="1" as="geometry">
            <mxPoint x="516" y="407" as="sourcePoint" />
            <mxPoint x="516" y="425" as="targetPoint" />
          </mxGeometry>
        </mxCell>
        <mxCell id="2-OeauLspyQQJwICCulJ-70" value="" style="endArrow=none;html=1;rounded=0;entryX=0;entryY=0.5;entryDx=0;entryDy=0;entryPerimeter=0;" parent="1" target="2-OeauLspyQQJwICCulJ-1" edge="1">
          <mxGeometry width="50" height="50" relative="1" as="geometry">
            <mxPoint x="206" y="151" as="sourcePoint" />
            <mxPoint x="836" y="151" as="targetPoint" />
            <Array as="points">
              <mxPoint x="486" y="150.66" />
            </Array>
          </mxGeometry>
        </mxCell>
        <mxCell id="2-OeauLspyQQJwICCulJ-87" value="" style="ellipse;whiteSpace=wrap;html=1;aspect=fixed;fontFamily=Helvetica;fontSize=11;fontColor=default;labelBackgroundColor=default;" parent="1" vertex="1">
          <mxGeometry x="730" y="253.14" width="10" height="10" as="geometry" />
        </mxCell>
        <mxCell id="2-OeauLspyQQJwICCulJ-89" value="" style="ellipse;whiteSpace=wrap;html=1;aspect=fixed;fontFamily=Helvetica;fontSize=11;fontColor=default;labelBackgroundColor=default;" parent="1" vertex="1">
          <mxGeometry x="197" y="147" width="10" height="10" as="geometry" />
        </mxCell>
        <mxCell id="2-OeauLspyQQJwICCulJ-110" value="Vin+" style="text;html=1;align=center;verticalAlign=middle;whiteSpace=wrap;rounded=0;fontFamily=Times New Roman;fontSize=20;fontColor=default;labelBackgroundColor=default;" parent="1" vertex="1">
          <mxGeometry x="429" y="226" width="60" height="30" as="geometry" />
        </mxCell>
        <mxCell id="2-OeauLspyQQJwICCulJ-111" value="Vin-" style="text;html=1;align=center;verticalAlign=middle;whiteSpace=wrap;rounded=0;fontFamily=Times New Roman;fontSize=20;fontColor=default;labelBackgroundColor=default;" parent="1" vertex="1">
          <mxGeometry x="686.01" y="226" width="60" height="30" as="geometry" />
        </mxCell>
        <mxCell id="2-OeauLspyQQJwICCulJ-112" value="Vb1" style="text;html=1;align=center;verticalAlign=middle;whiteSpace=wrap;rounded=0;fontFamily=Times New Roman;fontSize=20;fontColor=default;labelBackgroundColor=default;" parent="1" vertex="1">
          <mxGeometry x="166.01" y="110" width="60" height="30" as="geometry" />
        </mxCell>
        <mxCell id="2-OeauLspyQQJwICCulJ-113" value="Vb2" style="text;html=1;align=center;verticalAlign=middle;whiteSpace=wrap;rounded=0;fontFamily=Times New Roman;fontSize=20;fontColor=default;labelBackgroundColor=default;" parent="1" vertex="1">
          <mxGeometry x="560" y="417.5" width="60" height="30" as="geometry" />
        </mxCell>
        <mxCell id="2-OeauLspyQQJwICCulJ-119" style="edgeStyle=orthogonalEdgeStyle;shape=connector;rounded=0;orthogonalLoop=1;jettySize=auto;html=1;strokeColor=default;align=center;verticalAlign=middle;fontFamily=Helvetica;fontSize=11;fontColor=default;labelBackgroundColor=default;endArrow=none;endFill=0;" parent="1" edge="1">
          <mxGeometry relative="1" as="geometry">
            <mxPoint x="590" y="360" as="targetPoint" />
            <mxPoint x="590.01" y="393" as="sourcePoint" />
          </mxGeometry>
        </mxCell>
        <mxCell id="2-OeauLspyQQJwICCulJ-120" value="" style="ellipse;whiteSpace=wrap;html=1;aspect=fixed;fontFamily=Helvetica;fontSize=11;fontColor=default;labelBackgroundColor=default;rotation=-90;" parent="1" vertex="1">
          <mxGeometry x="585" y="393" width="10" height="10" as="geometry" />
        </mxCell>
        <mxCell id="2-OeauLspyQQJwICCulJ-121" value="" style="shape=waypoint;sketch=0;fillStyle=solid;size=6;pointerEvents=1;points=[];fillColor=none;resizable=0;rotatable=0;perimeter=centerPerimeter;snapToPoint=1;fontFamily=Helvetica;fontSize=11;fontColor=default;labelBackgroundColor=default;rotation=-90;" parent="1" vertex="1">
          <mxGeometry x="580" y="350" width="20" height="20" as="geometry" />
        </mxCell>
        <mxCell id="2-OeauLspyQQJwICCulJ-123" value="" style="edgeStyle=orthogonalEdgeStyle;shape=connector;rounded=0;orthogonalLoop=1;jettySize=auto;html=1;strokeColor=default;align=center;verticalAlign=middle;fontFamily=Helvetica;fontSize=11;fontColor=default;labelBackgroundColor=default;endArrow=none;endFill=0;" parent="1" edge="1">
          <mxGeometry relative="1" as="geometry">
            <mxPoint x="606" y="500" as="sourcePoint" />
            <mxPoint x="576" y="500" as="targetPoint" />
          </mxGeometry>
        </mxCell>
        <mxCell id="2-OeauLspyQQJwICCulJ-124" value="Vb3" style="text;html=1;align=center;verticalAlign=middle;whiteSpace=wrap;rounded=0;fontFamily=Times New Roman;fontSize=20;fontColor=default;labelBackgroundColor=default;" parent="1" vertex="1">
          <mxGeometry x="560" y="547.5" width="60" height="30" as="geometry" />
        </mxCell>
        <mxCell id="2-OeauLspyQQJwICCulJ-125" style="edgeStyle=orthogonalEdgeStyle;shape=connector;rounded=0;orthogonalLoop=1;jettySize=auto;html=1;strokeColor=default;align=center;verticalAlign=middle;fontFamily=Helvetica;fontSize=11;fontColor=default;labelBackgroundColor=default;endArrow=none;endFill=0;" parent="1" source="2-OeauLspyQQJwICCulJ-126" edge="1">
          <mxGeometry relative="1" as="geometry">
            <mxPoint x="590" y="500" as="targetPoint" />
          </mxGeometry>
        </mxCell>
        <mxCell id="2-OeauLspyQQJwICCulJ-126" value="" style="ellipse;whiteSpace=wrap;html=1;aspect=fixed;fontFamily=Helvetica;fontSize=11;fontColor=default;labelBackgroundColor=default;rotation=-90;" parent="1" vertex="1">
          <mxGeometry x="585" y="533" width="10" height="10" as="geometry" />
        </mxCell>
        <mxCell id="2-OeauLspyQQJwICCulJ-127" value="" style="shape=waypoint;sketch=0;fillStyle=solid;size=6;pointerEvents=1;points=[];fillColor=none;resizable=0;rotatable=0;perimeter=centerPerimeter;snapToPoint=1;fontFamily=Helvetica;fontSize=11;fontColor=default;labelBackgroundColor=default;rotation=-90;" parent="1" vertex="1">
          <mxGeometry x="580" y="490" width="20" height="20" as="geometry" />
        </mxCell>
        <mxCell id="2-OeauLspyQQJwICCulJ-136" value="M1" style="text;html=1;align=center;verticalAlign=middle;whiteSpace=wrap;rounded=0;fontFamily=Times New Roman;fontSize=20;fontColor=default;labelBackgroundColor=default;" parent="1" vertex="1">
          <mxGeometry x="520" y="246" width="60" height="30" as="geometry" />
        </mxCell>
        <mxCell id="2-OeauLspyQQJwICCulJ-137" value="M2" style="text;html=1;align=center;verticalAlign=middle;whiteSpace=wrap;rounded=0;fontFamily=Times New Roman;fontSize=20;fontColor=default;labelBackgroundColor=default;" parent="1" vertex="1">
          <mxGeometry x="606" y="246" width="60" height="30" as="geometry" />
        </mxCell>
        <mxCell id="2-OeauLspyQQJwICCulJ-138" value="M3" style="text;html=1;align=center;verticalAlign=middle;whiteSpace=wrap;rounded=0;fontFamily=Times New Roman;fontSize=20;fontColor=default;labelBackgroundColor=default;" parent="1" vertex="1">
          <mxGeometry x="466" y="363" width="60" height="30" as="geometry" />
        </mxCell>
        <mxCell id="2-OeauLspyQQJwICCulJ-139" value="M4" style="text;html=1;align=center;verticalAlign=middle;whiteSpace=wrap;rounded=0;fontFamily=Times New Roman;fontSize=20;fontColor=default;labelBackgroundColor=default;" parent="1" vertex="1">
          <mxGeometry x="656" y="360" width="60" height="30" as="geometry" />
        </mxCell>
        <mxCell id="2-OeauLspyQQJwICCulJ-140" value="M5" style="text;html=1;align=center;verticalAlign=middle;whiteSpace=wrap;rounded=0;fontFamily=Times New Roman;fontSize=20;fontColor=default;labelBackgroundColor=default;" parent="1" vertex="1">
          <mxGeometry x="466" y="503" width="60" height="30" as="geometry" />
        </mxCell>
        <mxCell id="2-OeauLspyQQJwICCulJ-141" value="M6" style="text;html=1;align=center;verticalAlign=middle;whiteSpace=wrap;rounded=0;fontFamily=Times New Roman;fontSize=20;fontColor=default;labelBackgroundColor=default;" parent="1" vertex="1">
          <mxGeometry x="656" y="503" width="60" height="30" as="geometry" />
        </mxCell>
        <mxCell id="2-OeauLspyQQJwICCulJ-142" value="M7" style="text;html=1;align=center;verticalAlign=middle;whiteSpace=wrap;rounded=0;fontFamily=Times New Roman;fontSize=20;fontColor=default;labelBackgroundColor=default;" parent="1" vertex="1">
          <mxGeometry x="466" y="617" width="60" height="30" as="geometry" />
        </mxCell>
        <mxCell id="2-OeauLspyQQJwICCulJ-143" value="M8" style="text;html=1;align=center;verticalAlign=middle;whiteSpace=wrap;rounded=0;fontFamily=Times New Roman;fontSize=20;fontColor=default;labelBackgroundColor=default;" parent="1" vertex="1">
          <mxGeometry x="656" y="617" width="60" height="30" as="geometry" />
        </mxCell>
        <mxCell id="2-OeauLspyQQJwICCulJ-146" value="M14" style="text;html=1;align=center;verticalAlign=middle;whiteSpace=wrap;rounded=0;fontFamily=Times New Roman;fontSize=20;fontColor=default;labelBackgroundColor=default;" parent="1" vertex="1">
          <mxGeometry x="306" y="156" width="60" height="30" as="geometry" />
        </mxCell>
        <mxCell id="2-OeauLspyQQJwICCulJ-148" value="M13" style="text;html=1;align=center;verticalAlign=middle;whiteSpace=wrap;rounded=0;fontFamily=Times New Roman;fontSize=20;fontColor=default;labelBackgroundColor=default;" parent="1" vertex="1">
          <mxGeometry x="595" y="156" width="60" height="30" as="geometry" />
        </mxCell>
        <mxCell id="kix75phdpvYNx26Edn90-1" style="edgeStyle=orthogonalEdgeStyle;rounded=0;orthogonalLoop=1;jettySize=auto;html=1;exitX=0;exitY=0.5;exitDx=0;exitDy=0;exitPerimeter=0;entryX=1;entryY=0.5;entryDx=0;entryDy=0;endArrow=none;endFill=0;" parent="1" source="2-OeauLspyQQJwICCulJ-13" target="2-OeauLspyQQJwICCulJ-83" edge="1">
          <mxGeometry relative="1" as="geometry" />
        </mxCell>
        <mxCell id="kix75phdpvYNx26Edn90-3" value="" style="ellipse;whiteSpace=wrap;html=1;aspect=fixed;fontFamily=Helvetica;fontSize=11;fontColor=default;labelBackgroundColor=default;" parent="1" vertex="1">
          <mxGeometry x="45.000000000000014" y="256" width="10" height="10" as="geometry" />
        </mxCell>
        <mxCell id="kix75phdpvYNx26Edn90-28" style="edgeStyle=orthogonalEdgeStyle;shape=connector;rounded=0;orthogonalLoop=1;jettySize=auto;html=1;exitX=1;exitY=0;exitDx=0;exitDy=0;exitPerimeter=0;strokeColor=default;align=center;verticalAlign=middle;fontFamily=Helvetica;fontSize=11;fontColor=default;labelBackgroundColor=default;endArrow=none;endFill=0;" parent="1" edge="1">
          <mxGeometry relative="1" as="geometry">
            <mxPoint x="522" y="201" as="targetPoint" />
            <mxPoint x="132" y="213.85714285714283" as="sourcePoint" />
            <Array as="points">
              <mxPoint x="132" y="214" />
              <mxPoint x="132" y="201" />
            </Array>
          </mxGeometry>
        </mxCell>
        <mxCell id="kix75phdpvYNx26Edn90-4" value="" style="verticalLabelPosition=bottom;shadow=0;dashed=0;align=center;html=1;verticalAlign=top;shape=mxgraph.electrical.transistors.pmos;pointerEvents=1;" parent="1" vertex="1">
          <mxGeometry x="72.00000000000001" y="211" width="60" height="100" as="geometry" />
        </mxCell>
        <mxCell id="kix75phdpvYNx26Edn90-22" style="edgeStyle=orthogonalEdgeStyle;shape=connector;rounded=0;orthogonalLoop=1;jettySize=auto;html=1;exitX=0;exitY=0.5;exitDx=0;exitDy=0;exitPerimeter=0;strokeColor=default;align=center;verticalAlign=middle;fontFamily=Helvetica;fontSize=11;fontColor=default;labelBackgroundColor=default;endArrow=none;endFill=0;" parent="1" source="kix75phdpvYNx26Edn90-5" target="2-OeauLspyQQJwICCulJ-121" edge="1">
          <mxGeometry relative="1" as="geometry" />
        </mxCell>
        <mxCell id="kix75phdpvYNx26Edn90-5" value="" style="verticalLabelPosition=bottom;shadow=0;dashed=0;align=center;html=1;verticalAlign=top;shape=mxgraph.electrical.transistors.pmos;pointerEvents=1;flipV=0;flipH=1;" parent="1" vertex="1">
          <mxGeometry x="132" y="310" width="60" height="100" as="geometry" />
        </mxCell>
        <mxCell id="kix75phdpvYNx26Edn90-24" style="edgeStyle=orthogonalEdgeStyle;shape=connector;rounded=0;orthogonalLoop=1;jettySize=auto;html=1;exitX=0;exitY=0.5;exitDx=0;exitDy=0;exitPerimeter=0;strokeColor=default;align=center;verticalAlign=middle;fontFamily=Helvetica;fontSize=11;fontColor=default;labelBackgroundColor=default;endArrow=none;endFill=0;" parent="1" source="kix75phdpvYNx26Edn90-6" target="2-OeauLspyQQJwICCulJ-127" edge="1">
          <mxGeometry relative="1" as="geometry" />
        </mxCell>
        <mxCell id="kix75phdpvYNx26Edn90-6" value="" style="verticalLabelPosition=bottom;shadow=0;dashed=0;align=center;html=1;verticalAlign=top;shape=mxgraph.electrical.transistors.nmos;pointerEvents=1;fontFamily=Helvetica;fontSize=11;fontColor=default;labelBackgroundColor=default;flipH=1;" parent="1" vertex="1">
          <mxGeometry x="132" y="450" width="60" height="100" as="geometry" />
        </mxCell>
        <mxCell id="kix75phdpvYNx26Edn90-7" value="" style="verticalLabelPosition=bottom;shadow=0;dashed=0;align=center;html=1;verticalAlign=top;shape=mxgraph.electrical.transistors.nmos;pointerEvents=1;fontFamily=Helvetica;fontSize=11;fontColor=default;labelBackgroundColor=default;flipH=1;" parent="1" vertex="1">
          <mxGeometry x="132" y="564" width="60" height="100" as="geometry" />
        </mxCell>
        <mxCell id="kix75phdpvYNx26Edn90-8" style="edgeStyle=orthogonalEdgeStyle;shape=connector;rounded=0;orthogonalLoop=1;jettySize=auto;html=1;exitX=1;exitY=1;exitDx=0;exitDy=0;exitPerimeter=0;entryX=1;entryY=0;entryDx=0;entryDy=0;entryPerimeter=0;strokeColor=default;align=center;verticalAlign=middle;fontFamily=Helvetica;fontSize=11;fontColor=default;labelBackgroundColor=default;endArrow=none;endFill=0;" parent="1" source="kix75phdpvYNx26Edn90-4" target="kix75phdpvYNx26Edn90-5" edge="1">
          <mxGeometry relative="1" as="geometry" />
        </mxCell>
        <mxCell id="kix75phdpvYNx26Edn90-9" style="edgeStyle=orthogonalEdgeStyle;shape=connector;rounded=0;orthogonalLoop=1;jettySize=auto;html=1;exitDx=0;exitDy=0;exitPerimeter=0;entryX=1;entryY=0;entryDx=0;entryDy=0;entryPerimeter=0;strokeColor=default;align=center;verticalAlign=middle;fontFamily=Helvetica;fontSize=11;fontColor=default;labelBackgroundColor=default;endArrow=none;endFill=0;" parent="1" source="kix75phdpvYNx26Edn90-14" target="kix75phdpvYNx26Edn90-6" edge="1">
          <mxGeometry relative="1" as="geometry" />
        </mxCell>
        <mxCell id="kix75phdpvYNx26Edn90-10" style="edgeStyle=orthogonalEdgeStyle;shape=connector;rounded=0;orthogonalLoop=1;jettySize=auto;html=1;exitX=1;exitY=1;exitDx=0;exitDy=0;exitPerimeter=0;entryX=1;entryY=0;entryDx=0;entryDy=0;entryPerimeter=0;strokeColor=default;align=center;verticalAlign=middle;fontFamily=Helvetica;fontSize=11;fontColor=default;labelBackgroundColor=default;endArrow=none;endFill=0;" parent="1" source="kix75phdpvYNx26Edn90-6" target="kix75phdpvYNx26Edn90-7" edge="1">
          <mxGeometry relative="1" as="geometry" />
        </mxCell>
        <mxCell id="kix75phdpvYNx26Edn90-13" value="" style="edgeStyle=orthogonalEdgeStyle;shape=connector;rounded=0;orthogonalLoop=1;jettySize=auto;html=1;exitX=1;exitY=1;exitDx=0;exitDy=0;exitPerimeter=0;entryDx=0;entryDy=0;entryPerimeter=0;strokeColor=default;align=center;verticalAlign=middle;fontFamily=Helvetica;fontSize=11;fontColor=default;labelBackgroundColor=default;endArrow=none;endFill=0;" parent="1" source="kix75phdpvYNx26Edn90-5" target="kix75phdpvYNx26Edn90-14" edge="1">
          <mxGeometry relative="1" as="geometry">
            <mxPoint x="132" y="407" as="sourcePoint" />
            <mxPoint x="132" y="453" as="targetPoint" />
          </mxGeometry>
        </mxCell>
        <mxCell id="kix75phdpvYNx26Edn90-25" style="edgeStyle=orthogonalEdgeStyle;shape=connector;rounded=0;orthogonalLoop=1;jettySize=auto;html=1;strokeColor=default;align=center;verticalAlign=middle;fontFamily=Helvetica;fontSize=11;fontColor=default;labelBackgroundColor=default;endArrow=none;endFill=0;" parent="1" source="kix75phdpvYNx26Edn90-14" edge="1">
          <mxGeometry relative="1" as="geometry">
            <mxPoint x="199.01" y="614" as="targetPoint" />
          </mxGeometry>
        </mxCell>
        <mxCell id="kix75phdpvYNx26Edn90-14" value="" style="shape=waypoint;sketch=0;fillStyle=solid;size=6;pointerEvents=1;points=[];fillColor=none;resizable=0;rotatable=0;perimeter=centerPerimeter;snapToPoint=1;fontFamily=Helvetica;fontSize=11;fontColor=default;labelBackgroundColor=default;" parent="1" vertex="1">
          <mxGeometry x="122" y="415" width="20" height="20" as="geometry" />
        </mxCell>
        <mxCell id="kix75phdpvYNx26Edn90-15" value="Vcmo" style="text;html=1;align=center;verticalAlign=middle;whiteSpace=wrap;rounded=0;fontFamily=Times New Roman;fontSize=20;fontColor=default;labelBackgroundColor=default;" parent="1" vertex="1">
          <mxGeometry x="20.000000000000014" y="226" width="60" height="30" as="geometry" />
        </mxCell>
        <mxCell id="kix75phdpvYNx26Edn90-16" value="M19" style="text;html=1;align=center;verticalAlign=middle;whiteSpace=wrap;rounded=0;fontFamily=Times New Roman;fontSize=20;fontColor=default;labelBackgroundColor=default;" parent="1" vertex="1">
          <mxGeometry x="45.000000000000014" y="270.5" width="60" height="30" as="geometry" />
        </mxCell>
        <mxCell id="kix75phdpvYNx26Edn90-17" value="M20" style="text;html=1;align=center;verticalAlign=middle;whiteSpace=wrap;rounded=0;fontFamily=Times New Roman;fontSize=20;fontColor=default;labelBackgroundColor=default;" parent="1" vertex="1">
          <mxGeometry x="62.000000000000014" y="370" width="60" height="30" as="geometry" />
        </mxCell>
        <mxCell id="kix75phdpvYNx26Edn90-18" value="M21" style="text;html=1;align=center;verticalAlign=middle;whiteSpace=wrap;rounded=0;fontFamily=Times New Roman;fontSize=20;fontColor=default;labelBackgroundColor=default;" parent="1" vertex="1">
          <mxGeometry x="72.00000000000001" y="503" width="60" height="30" as="geometry" />
        </mxCell>
        <mxCell id="kix75phdpvYNx26Edn90-19" value="M22" style="text;html=1;align=center;verticalAlign=middle;whiteSpace=wrap;rounded=0;fontFamily=Times New Roman;fontSize=20;fontColor=default;labelBackgroundColor=default;" parent="1" vertex="1">
          <mxGeometry x="72.00000000000001" y="617" width="60" height="30" as="geometry" />
        </mxCell>
        <mxCell id="kix75phdpvYNx26Edn90-20" style="edgeStyle=orthogonalEdgeStyle;rounded=0;orthogonalLoop=1;jettySize=auto;html=1;exitX=0;exitY=0.5;exitDx=0;exitDy=0;exitPerimeter=0;entryX=1;entryY=0.5;entryDx=0;entryDy=0;endArrow=none;endFill=0;" parent="1" source="kix75phdpvYNx26Edn90-4" target="kix75phdpvYNx26Edn90-3" edge="1">
          <mxGeometry relative="1" as="geometry" />
        </mxCell>
        <mxCell id="kix75phdpvYNx26Edn90-23" style="edgeStyle=orthogonalEdgeStyle;shape=connector;rounded=0;orthogonalLoop=1;jettySize=auto;html=1;exitDx=0;exitDy=0;exitPerimeter=0;entryX=0;entryY=0.5;entryDx=0;entryDy=0;entryPerimeter=0;strokeColor=default;align=center;verticalAlign=middle;fontFamily=Helvetica;fontSize=11;fontColor=default;labelBackgroundColor=default;endArrow=none;endFill=0;" parent="1" source="kix75phdpvYNx26Edn90-26" target="2-OeauLspyQQJwICCulJ-24" edge="1">
          <mxGeometry relative="1" as="geometry" />
        </mxCell>
        <mxCell id="kix75phdpvYNx26Edn90-27" value="" style="edgeStyle=orthogonalEdgeStyle;shape=connector;rounded=0;orthogonalLoop=1;jettySize=auto;html=1;exitX=0;exitY=0.5;exitDx=0;exitDy=0;exitPerimeter=0;entryDx=0;entryDy=0;entryPerimeter=0;strokeColor=default;align=center;verticalAlign=middle;fontFamily=Helvetica;fontSize=11;fontColor=default;labelBackgroundColor=default;endArrow=none;endFill=0;" parent="1" source="kix75phdpvYNx26Edn90-7" target="kix75phdpvYNx26Edn90-26" edge="1">
          <mxGeometry relative="1" as="geometry">
            <mxPoint x="192.01" y="614" as="sourcePoint" />
            <mxPoint x="596.01" y="614" as="targetPoint" />
          </mxGeometry>
        </mxCell>
        <mxCell id="kix75phdpvYNx26Edn90-26" value="" style="shape=waypoint;sketch=0;fillStyle=solid;size=6;pointerEvents=1;points=[];fillColor=none;resizable=0;rotatable=0;perimeter=centerPerimeter;snapToPoint=1;fontFamily=Helvetica;fontSize=11;fontColor=default;labelBackgroundColor=default;" parent="1" vertex="1">
          <mxGeometry x="189" y="604" width="20" height="20" as="geometry" />
        </mxCell>
        <mxCell id="kix75phdpvYNx26Edn90-30" value="" style="endArrow=none;html=1;rounded=0;strokeColor=default;align=center;verticalAlign=middle;fontFamily=Helvetica;fontSize=11;fontColor=default;labelBackgroundColor=default;edgeStyle=orthogonalEdgeStyle;" parent="1" edge="1">
          <mxGeometry width="50" height="50" relative="1" as="geometry">
            <mxPoint x="306" y="201" as="sourcePoint" />
            <mxPoint x="306" y="191" as="targetPoint" />
          </mxGeometry>
        </mxCell>
        <mxCell id="kix75phdpvYNx26Edn90-34" style="edgeStyle=orthogonalEdgeStyle;shape=connector;rounded=0;orthogonalLoop=1;jettySize=auto;html=1;exitX=1;exitY=0;exitDx=0;exitDy=0;exitPerimeter=0;strokeColor=default;align=center;verticalAlign=middle;fontFamily=Helvetica;fontSize=11;fontColor=default;labelBackgroundColor=default;endArrow=none;endFill=0;" parent="1" source="kix75phdpvYNx26Edn90-31" edge="1">
          <mxGeometry relative="1" as="geometry">
            <mxPoint x="383.0444827586207" y="200" as="targetPoint" />
          </mxGeometry>
        </mxCell>
        <mxCell id="8Mx9UTNkvWLHWeWhvfJE-16" style="edgeStyle=orthogonalEdgeStyle;shape=connector;rounded=0;orthogonalLoop=1;jettySize=auto;html=1;exitX=1;exitY=1;exitDx=0;exitDy=0;exitPerimeter=0;strokeColor=default;align=center;verticalAlign=middle;fontFamily=Helvetica;fontSize=11;fontColor=default;labelBackgroundColor=default;endArrow=none;endFill=0;" edge="1" parent="1" source="kix75phdpvYNx26Edn90-31">
          <mxGeometry relative="1" as="geometry">
            <mxPoint x="383.1428571428571" y="320" as="targetPoint" />
          </mxGeometry>
        </mxCell>
        <mxCell id="kix75phdpvYNx26Edn90-31" value="" style="verticalLabelPosition=bottom;shadow=0;dashed=0;align=center;html=1;verticalAlign=top;shape=mxgraph.electrical.transistors.pmos;pointerEvents=1;" parent="1" vertex="1">
          <mxGeometry x="323.01" y="208.14" width="60" height="100" as="geometry" />
        </mxCell>
        <mxCell id="kix75phdpvYNx26Edn90-33" style="edgeStyle=orthogonalEdgeStyle;shape=connector;rounded=0;orthogonalLoop=1;jettySize=auto;html=1;exitX=1;exitY=0;exitDx=0;exitDy=0;exitPerimeter=0;strokeColor=default;align=center;verticalAlign=middle;fontFamily=Helvetica;fontSize=11;fontColor=default;labelBackgroundColor=default;endArrow=none;endFill=0;" parent="1" source="kix75phdpvYNx26Edn90-32" edge="1">
          <mxGeometry relative="1" as="geometry">
            <mxPoint x="238.9065517241379" y="200" as="targetPoint" />
          </mxGeometry>
        </mxCell>
        <mxCell id="kix75phdpvYNx26Edn90-32" value="" style="verticalLabelPosition=bottom;shadow=0;dashed=0;align=center;html=1;verticalAlign=top;shape=mxgraph.electrical.transistors.pmos;pointerEvents=1;flipV=0;flipH=1;" parent="1" vertex="1">
          <mxGeometry x="239.01" y="208.14" width="60" height="100" as="geometry" />
        </mxCell>
        <mxCell id="kix75phdpvYNx26Edn90-41" style="edgeStyle=orthogonalEdgeStyle;shape=connector;rounded=0;orthogonalLoop=1;jettySize=auto;html=1;exitDx=0;exitDy=0;exitPerimeter=0;entryX=0;entryY=0.5;entryDx=0;entryDy=0;entryPerimeter=0;strokeColor=default;align=center;verticalAlign=middle;fontFamily=Helvetica;fontSize=11;fontColor=default;labelBackgroundColor=default;endArrow=none;endFill=0;" parent="1" source="kix75phdpvYNx26Edn90-45" target="kix75phdpvYNx26Edn90-31" edge="1">
          <mxGeometry relative="1" as="geometry" />
        </mxCell>
        <mxCell id="kix75phdpvYNx26Edn90-42" value="Vcm_ref" style="text;html=1;align=center;verticalAlign=middle;whiteSpace=wrap;rounded=0;fontFamily=Times New Roman;fontSize=20;fontColor=default;labelBackgroundColor=default;" parent="1" vertex="1">
          <mxGeometry x="261.01" y="300.5" width="91.99" height="29.5" as="geometry" />
        </mxCell>
        <mxCell id="kix75phdpvYNx26Edn90-43" style="edgeStyle=orthogonalEdgeStyle;shape=connector;rounded=0;orthogonalLoop=1;jettySize=auto;html=1;strokeColor=default;align=center;verticalAlign=middle;fontFamily=Helvetica;fontSize=11;fontColor=default;labelBackgroundColor=default;endArrow=none;endFill=0;" parent="1" edge="1">
          <mxGeometry relative="1" as="geometry">
            <mxPoint x="307.01" y="257.5" as="targetPoint" />
            <mxPoint x="307.02" y="290.5" as="sourcePoint" />
            <Array as="points">
              <mxPoint x="307.01" y="280" />
              <mxPoint x="307.01" y="280" />
            </Array>
          </mxGeometry>
        </mxCell>
        <mxCell id="kix75phdpvYNx26Edn90-44" value="" style="ellipse;whiteSpace=wrap;html=1;aspect=fixed;fontFamily=Helvetica;fontSize=11;fontColor=default;labelBackgroundColor=default;rotation=-90;" parent="1" vertex="1">
          <mxGeometry x="302.01" y="290.5" width="10" height="10" as="geometry" />
        </mxCell>
        <mxCell id="kix75phdpvYNx26Edn90-46" value="" style="edgeStyle=orthogonalEdgeStyle;shape=connector;rounded=0;orthogonalLoop=1;jettySize=auto;html=1;exitX=0;exitY=0.5;exitDx=0;exitDy=0;exitPerimeter=0;entryDx=0;entryDy=0;entryPerimeter=0;strokeColor=default;align=center;verticalAlign=middle;fontFamily=Helvetica;fontSize=11;fontColor=default;labelBackgroundColor=default;endArrow=none;endFill=0;" parent="1" source="kix75phdpvYNx26Edn90-32" target="kix75phdpvYNx26Edn90-45" edge="1">
          <mxGeometry relative="1" as="geometry">
            <mxPoint x="299.01" y="258" as="sourcePoint" />
            <mxPoint x="323.01" y="258" as="targetPoint" />
          </mxGeometry>
        </mxCell>
        <mxCell id="kix75phdpvYNx26Edn90-45" value="" style="shape=waypoint;sketch=0;fillStyle=solid;size=6;pointerEvents=1;points=[];fillColor=none;resizable=0;rotatable=0;perimeter=centerPerimeter;snapToPoint=1;fontFamily=Helvetica;fontSize=11;fontColor=default;labelBackgroundColor=default;" parent="1" vertex="1">
          <mxGeometry x="297.01" y="248.14" width="20" height="20" as="geometry" />
        </mxCell>
        <mxCell id="kix75phdpvYNx26Edn90-52" value="M15" style="text;html=1;align=center;verticalAlign=middle;whiteSpace=wrap;rounded=0;fontFamily=Times New Roman;fontSize=20;fontColor=default;labelBackgroundColor=default;" parent="1" vertex="1">
          <mxGeometry x="196" y="246" width="60" height="30" as="geometry" />
        </mxCell>
        <mxCell id="kix75phdpvYNx26Edn90-53" value="M16" style="text;html=1;align=center;verticalAlign=middle;whiteSpace=wrap;rounded=0;fontFamily=Times New Roman;fontSize=20;fontColor=default;labelBackgroundColor=default;" parent="1" vertex="1">
          <mxGeometry x="359" y="243.14" width="60" height="30" as="geometry" />
        </mxCell>
        <mxCell id="kix75phdpvYNx26Edn90-55" value="Differential Mode Amplifier" style="text;html=1;align=center;verticalAlign=middle;whiteSpace=wrap;rounded=0;fontFamily=Times New Roman;fontSize=20;fontColor=default;labelBackgroundColor=default;" parent="1" vertex="1">
          <mxGeometry x="630" y="70" width="110" height="80" as="geometry" />
        </mxCell>
        <mxCell id="kix75phdpvYNx26Edn90-57" value="Common Mode Amplifier" style="text;html=1;align=center;verticalAlign=middle;whiteSpace=wrap;rounded=0;fontFamily=Times New Roman;fontSize=20;fontColor=default;labelBackgroundColor=default;" parent="1" vertex="1">
          <mxGeometry x="45" y="76" width="108" height="80" as="geometry" />
        </mxCell>
        <mxCell id="kix75phdpvYNx26Edn90-60" value="" style="endArrow=none;html=1;rounded=0;strokeColor=default;align=center;verticalAlign=middle;fontFamily=Helvetica;fontSize=11;fontColor=default;labelBackgroundColor=default;edgeStyle=orthogonalEdgeStyle;" parent="1" edge="1">
          <mxGeometry width="50" height="50" relative="1" as="geometry">
            <mxPoint x="336" y="90" as="sourcePoint" />
            <mxPoint x="306" y="90" as="targetPoint" />
          </mxGeometry>
        </mxCell>
        <mxCell id="8Mx9UTNkvWLHWeWhvfJE-17" style="edgeStyle=orthogonalEdgeStyle;shape=connector;rounded=0;orthogonalLoop=1;jettySize=auto;html=1;exitX=1;exitY=1;exitDx=0;exitDy=0;exitPerimeter=0;strokeColor=default;align=center;verticalAlign=middle;fontFamily=Helvetica;fontSize=11;fontColor=default;labelBackgroundColor=default;endArrow=none;endFill=0;entryX=0.999;entryY=0.077;entryDx=0;entryDy=0;entryPerimeter=0;" edge="1" parent="1">
          <mxGeometry relative="1" as="geometry">
            <mxPoint x="516.06" y="461.1171428571429" as="targetPoint" />
            <mxPoint x="239" y="407.357142857143" as="sourcePoint" />
            <Array as="points">
              <mxPoint x="239" y="461" />
              <mxPoint x="515" y="461" />
            </Array>
          </mxGeometry>
        </mxCell>
        <mxCell id="8Mx9UTNkvWLHWeWhvfJE-1" value="" style="verticalLabelPosition=bottom;shadow=0;dashed=0;align=center;html=1;verticalAlign=top;shape=mxgraph.electrical.transistors.pmos;pointerEvents=1;flipV=0;flipH=1;" vertex="1" parent="1">
          <mxGeometry x="239" y="310" width="59" height="100" as="geometry" />
        </mxCell>
        <mxCell id="8Mx9UTNkvWLHWeWhvfJE-2" value="" style="edgeStyle=orthogonalEdgeStyle;shape=connector;rounded=0;orthogonalLoop=1;jettySize=auto;html=1;strokeColor=default;align=center;verticalAlign=middle;fontFamily=Helvetica;fontSize=11;fontColor=default;labelBackgroundColor=default;endArrow=none;endFill=0;" edge="1" parent="1" source="8Mx9UTNkvWLHWeWhvfJE-3" target="8Mx9UTNkvWLHWeWhvfJE-1">
          <mxGeometry relative="1" as="geometry" />
        </mxCell>
        <mxCell id="8Mx9UTNkvWLHWeWhvfJE-18" style="edgeStyle=orthogonalEdgeStyle;shape=connector;rounded=0;orthogonalLoop=1;jettySize=auto;html=1;exitX=1;exitY=1;exitDx=0;exitDy=0;exitPerimeter=0;strokeColor=default;align=center;verticalAlign=middle;fontFamily=Helvetica;fontSize=11;fontColor=default;labelBackgroundColor=default;endArrow=none;endFill=0;" edge="1" parent="1" source="8Mx9UTNkvWLHWeWhvfJE-3">
          <mxGeometry relative="1" as="geometry">
            <mxPoint x="666" y="400" as="targetPoint" />
            <Array as="points">
              <mxPoint x="383" y="410" />
              <mxPoint x="666" y="410" />
            </Array>
          </mxGeometry>
        </mxCell>
        <mxCell id="8Mx9UTNkvWLHWeWhvfJE-3" value="" style="verticalLabelPosition=bottom;shadow=0;dashed=0;align=center;html=1;verticalAlign=top;shape=mxgraph.electrical.transistors.pmos;pointerEvents=1;" vertex="1" parent="1">
          <mxGeometry x="323" y="310" width="60" height="100" as="geometry" />
        </mxCell>
        <mxCell id="8Mx9UTNkvWLHWeWhvfJE-5" style="edgeStyle=orthogonalEdgeStyle;shape=connector;rounded=0;orthogonalLoop=1;jettySize=auto;html=1;exitX=1;exitY=0;exitDx=0;exitDy=0;exitPerimeter=0;entryX=1;entryY=1;entryDx=0;entryDy=0;entryPerimeter=0;strokeColor=default;align=center;verticalAlign=middle;fontFamily=Helvetica;fontSize=11;fontColor=default;labelBackgroundColor=default;endArrow=none;endFill=0;" edge="1" parent="1" source="8Mx9UTNkvWLHWeWhvfJE-3">
          <mxGeometry relative="1" as="geometry">
            <mxPoint x="383" y="315" as="targetPoint" />
          </mxGeometry>
        </mxCell>
        <mxCell id="8Mx9UTNkvWLHWeWhvfJE-11" value="M17" style="text;html=1;align=center;verticalAlign=middle;whiteSpace=wrap;rounded=0;fontFamily=Times New Roman;fontSize=20;fontColor=default;labelBackgroundColor=default;" vertex="1" parent="1">
          <mxGeometry x="186" y="360" width="60" height="30" as="geometry" />
        </mxCell>
        <mxCell id="8Mx9UTNkvWLHWeWhvfJE-12" value="M18" style="text;html=1;align=center;verticalAlign=middle;whiteSpace=wrap;rounded=0;fontFamily=Times New Roman;fontSize=20;fontColor=default;labelBackgroundColor=default;" vertex="1" parent="1">
          <mxGeometry x="373" y="370" width="60" height="30" as="geometry" />
        </mxCell>
        <mxCell id="8Mx9UTNkvWLHWeWhvfJE-15" style="edgeStyle=orthogonalEdgeStyle;rounded=0;orthogonalLoop=1;jettySize=auto;html=1;exitX=1;exitY=0;exitDx=0;exitDy=0;exitPerimeter=0;entryX=1;entryY=1;entryDx=0;entryDy=0;entryPerimeter=0;endArrow=none;endFill=0;" edge="1" parent="1" source="8Mx9UTNkvWLHWeWhvfJE-1" target="kix75phdpvYNx26Edn90-32">
          <mxGeometry relative="1" as="geometry" />
        </mxCell>
        <mxCell id="8Mx9UTNkvWLHWeWhvfJE-22" value="" style="edgeStyle=orthogonalEdgeStyle;shape=connector;rounded=0;orthogonalLoop=1;jettySize=auto;html=1;exitX=1;exitY=1;exitDx=0;exitDy=0;exitPerimeter=0;entryDx=0;entryDy=0;entryPerimeter=0;strokeColor=default;align=center;verticalAlign=middle;fontFamily=Helvetica;fontSize=11;fontColor=default;labelBackgroundColor=default;endArrow=none;endFill=0;" edge="1" parent="1" source="2-OeauLspyQQJwICCulJ-20" target="8Mx9UTNkvWLHWeWhvfJE-20">
          <mxGeometry relative="1" as="geometry">
            <mxPoint x="666" y="407" as="sourcePoint" />
            <mxPoint x="666" y="425" as="targetPoint" />
          </mxGeometry>
        </mxCell>
        <mxCell id="8Mx9UTNkvWLHWeWhvfJE-20" value="" style="shape=waypoint;sketch=0;fillStyle=solid;size=6;pointerEvents=1;points=[];fillColor=none;resizable=0;rotatable=0;perimeter=centerPerimeter;snapToPoint=1;fontFamily=Helvetica;fontSize=11;fontColor=default;labelBackgroundColor=default;rotation=-90;" vertex="1" parent="1">
          <mxGeometry x="656" y="400" width="20" height="20" as="geometry" />
        </mxCell>
        <mxCell id="8Mx9UTNkvWLHWeWhvfJE-23" value="" style="shape=waypoint;sketch=0;fillStyle=solid;size=6;pointerEvents=1;points=[];fillColor=none;resizable=0;rotatable=0;perimeter=centerPerimeter;snapToPoint=1;fontFamily=Helvetica;fontSize=11;fontColor=default;labelBackgroundColor=default;rotation=-90;" vertex="1" parent="1">
          <mxGeometry x="506" y="451" width="20" height="20" as="geometry" />
        </mxCell>
      </root>
    </mxGraphModel>
  </diagram>
</mxfile>
